<svg width="122" height="41" viewBox="0 0 122 41" fill="none" xmlns="http://www.w3.org/2000/svg">
<rect x="16.9736" y="16.7515" width="5.05181" height="9.29534" fill="#4FC2A0"/>
<path d="M38.8612 23.8224C39.1889 21.0903 38.9347 18.3199 38.1153 15.6931C37.2959 13.0663 35.9298 10.6426 34.1069 8.58146C32.284 6.52029 30.0454 4.86825 27.5385 3.73394C25.0315 2.59964 22.3129 2.00874 19.5613 2.0001C16.8096 1.99145 14.0873 2.56525 11.5733 3.68379C9.05926 4.80232 6.81041 6.44026 4.97457 8.48994C3.13872 10.5396 1.75745 12.9546 0.92155 15.5762C0.0856475 18.1978 -0.18596 20.9666 0.124579 23.7007L19.5 21.5L38.8612 23.8224Z" fill="#4FC2A0"/>
<path d="M42.3535 14.6211C42.3535 12.8594 42.4985 11.5059 42.7886 10.5605C43.0894 9.63672 43.5513 8.85791 44.1743 8.22412C44.6362 7.66553 45.2808 7.16602 46.1079 6.72559C46.9243 6.30664 47.9717 6.08643 49.25 6.06494C50.5713 6.08643 51.6401 6.30664 52.4565 6.72559C53.2622 7.16602 53.8853 7.66553 54.3257 8.22412C54.9917 8.85791 55.4644 9.63672 55.7437 10.5605C56.0122 11.5059 56.1465 12.8594 56.1465 14.6211C56.1465 16.3828 56.0122 17.7256 55.7437 18.6494C55.4644 19.5732 54.9917 20.3735 54.3257 21.0503C54.1108 21.2974 53.8477 21.5391 53.5361 21.7754C53.2568 22.0439 52.897 22.2749 52.4565 22.4683C51.6401 22.9302 50.5713 23.1719 49.25 23.1934C47.9717 23.1719 46.9243 22.9302 46.1079 22.4683C45.2808 22.0493 44.6362 21.5767 44.1743 21.0503C43.5513 20.3735 43.0894 19.5732 42.7886 18.6494C42.4985 17.7256 42.3535 16.3828 42.3535 14.6211ZM52.7788 14.6533C52.7788 13.4609 52.7251 12.5908 52.6177 12.043C52.5103 11.5166 52.29 11.0547 51.957 10.6572C51.71 10.2812 51.3447 9.98584 50.8613 9.771C50.3994 9.54541 49.8623 9.43262 49.25 9.43262C48.6807 9.43262 48.1543 9.54541 47.6709 9.771C47.209 9.98584 46.833 10.2812 46.543 10.6572C46.2529 11.0547 46.0435 11.5166 45.9146 12.043C45.7856 12.5908 45.7212 13.4502 45.7212 14.6211C45.7212 15.7812 45.7856 16.6299 45.9146 17.167C46.0435 17.7148 46.2529 18.1982 46.543 18.6172C46.833 18.9395 47.209 19.2241 47.6709 19.4712C48.1543 19.7075 48.6807 19.8257 49.25 19.8257C49.8623 19.8257 50.3994 19.7075 50.8613 19.4712C51.3447 19.2241 51.71 18.9395 51.957 18.6172C52.29 18.1982 52.5103 17.7148 52.6177 17.167C52.7251 16.6299 52.7788 15.792 52.7788 14.6533ZM59.6753 6.27441H63.043V8.01465C64.1602 6.76855 65.5996 6.11865 67.3613 6.06494C69.4131 6.11865 70.9116 6.84912 71.8569 8.25635C72.3188 8.78271 72.6357 9.47559 72.8076 10.335C72.9688 11.1836 73.0493 12.623 73.0493 14.6533C73.0493 16.6299 72.9688 18.0479 72.8076 18.9072C72.6357 19.7666 72.3188 20.4702 71.8569 21.0181C71.395 21.6626 70.7881 22.1782 70.0361 22.5649C69.2949 22.9624 68.4033 23.1719 67.3613 23.1934C66.502 23.1934 65.7339 23.0054 65.0571 22.6294C64.3267 22.2856 63.6553 21.813 63.043 21.2114V29.7676H59.6753V6.27441ZM66.3462 19.8257C67.1411 19.8257 67.7695 19.6753 68.2314 19.3745C68.6934 19.063 69.021 18.6655 69.2144 18.1821C69.4292 17.6772 69.5742 17.1187 69.6494 16.5063C69.6709 15.9048 69.6816 15.2871 69.6816 14.6533C69.6816 13.9873 69.6709 13.3374 69.6494 12.7036C69.5742 12.0698 69.4292 11.5112 69.2144 11.0278C69.021 10.5229 68.6934 10.1255 68.2314 9.83545C67.7695 9.56689 67.1411 9.43262 66.3462 9.43262C65.5942 9.43262 64.998 9.58838 64.5576 9.8999C64.0957 10.2114 63.7573 10.6196 63.5425 11.1245C63.3384 11.6294 63.2041 12.1772 63.1396 12.7681C63.0752 13.3911 63.043 14.0195 63.043 14.6533C63.043 15.2441 63.0752 15.835 63.1396 16.4258C63.2041 17.0488 63.3384 17.6128 63.5425 18.1177C63.7573 18.6226 64.0957 19.0308 64.5576 19.3423C64.998 19.6646 65.5942 19.8257 66.3462 19.8257ZM74.4189 6.27441H77.98L81.9438 17.9888H82.0083L85.9561 6.27441H89.5332L82.3306 26.4644C81.8687 27.7212 81.2295 28.5913 80.4131 29.0747C79.5859 29.5366 78.6514 29.7676 77.6094 29.7676H76.4976V26.5933H77.4805C77.9209 26.5933 78.3291 26.4751 78.7051 26.2388C79.0811 25.9917 79.3442 25.6265 79.4946 25.1431L80.4131 22.3394L74.4189 6.27441ZM91.4829 6.27441H94.8506V8.04688H94.915C96.0215 6.72559 97.4717 6.06494 99.2656 6.06494C100.651 6.06494 101.919 6.55371 103.068 7.53125C104.207 8.51953 104.803 9.96973 104.857 11.8818V23H101.489V13.042C101.489 11.8711 101.178 10.9795 100.555 10.3672C99.9424 9.74414 99.1528 9.43262 98.186 9.43262C97.2192 9.43262 96.4243 9.74414 95.8013 10.3672C95.1675 10.9795 94.8506 11.8711 94.8506 13.042V23H91.4829V6.27441Z" fill="#C1C2C2"/>
</svg>
